<svg width="270" height="55" viewBox="0 0 270 73" fill="none" xmlns="http://www.w3.org/2000/svg"><path d="M33.8517 46.4784L22.0048 47.1987L21.6323 46.851V43.5974H21.4833C20.9203 44.1107 20.3656 44.6157 19.8192 45.1125C19.2894 45.5926 18.6519 46.0314 17.9069 46.4288C17.0624 46.8758 16.2594 47.207 15.4978 47.4222C14.7527 47.6375 13.6599 47.7451 12.2194 47.7451C9.71921 47.7451 7.79855 46.9917 6.4574 45.485C5.1328 43.9783 4.47051 41.8506 4.47051 39.1021V27.9258C4.47051 27.2801 4.34632 26.7585 4.09796 26.3612C3.8496 25.9472 3.51845 25.583 3.10452 25.2684C2.77337 25.02 2.34288 24.8462 1.81304 24.7468C1.2832 24.6309 0.803035 24.5564 0.372542 24.5233V22.7103L12.4181 22.0645L12.6913 22.4371V38.9531C12.6913 40.6585 13.0141 41.9169 13.6599 42.7282C14.3222 43.5395 15.2246 43.9452 16.367 43.9452C17.5426 43.9452 18.594 43.6388 19.5212 43.0262C20.465 42.4136 21.1521 41.7596 21.5826 41.0642V27.6775C21.5826 27.1145 21.475 26.6095 21.2597 26.1625C21.0445 25.7154 20.7299 25.3512 20.316 25.0697C20.0179 24.871 19.5874 24.7385 19.0245 24.6723C18.4781 24.6061 17.9151 24.5564 17.3356 24.5233V22.7103L29.3812 22.0645L29.7537 22.4371V41.6106C29.7537 42.1901 29.8696 42.6868 30.1014 43.1007C30.3332 43.4981 30.6726 43.8375 31.1197 44.119C31.4343 44.3177 31.8399 44.4584 32.3367 44.5412C32.8499 44.6075 33.3549 44.6488 33.8517 44.6654V46.4784ZM66.3582 47H51.4068V45.187C51.7214 45.1538 52.1022 45.1125 52.5493 45.0628C52.9963 45.0131 53.3358 44.9303 53.5676 44.8144C53.9153 44.6323 54.1636 44.3674 54.3127 44.0197C54.4617 43.672 54.5362 43.1587 54.5362 42.4798V30.8565C54.5362 29.1677 54.2216 27.901 53.5924 27.0566C52.9798 26.1956 52.0691 25.7651 50.8604 25.7651C50.1981 25.7651 49.5772 25.8644 48.9977 26.0631C48.4348 26.2618 47.8801 26.5516 47.3337 26.9324C46.8535 27.2635 46.4644 27.603 46.1664 27.9507C45.8849 28.2984 45.6449 28.6047 45.4462 28.8696V42.2066C45.4462 42.7861 45.5289 43.2746 45.6945 43.672C45.8601 44.0528 46.1333 44.3425 46.5141 44.5412C46.779 44.6902 47.1102 44.8227 47.5076 44.9386C47.9049 45.0545 48.294 45.1373 48.6749 45.187V47H33.5745V45.187C33.9884 45.1538 34.4024 45.1125 34.8163 45.0628C35.2468 44.9966 35.6111 44.9138 35.9091 44.8144C36.4389 44.6323 36.8032 44.3508 37.0019 43.97C37.2006 43.5892 37.2999 43.0924 37.2999 42.4798V28.0252C37.2999 27.5119 37.1674 27.0069 36.9025 26.5102C36.6376 26.0135 36.2899 25.6078 35.8594 25.2932C35.5614 25.0945 35.1806 24.929 34.7169 24.7965C34.2699 24.664 33.7732 24.573 33.2268 24.5233V22.7103L45.0736 22.0645L45.4462 22.4371V26.0383H45.5455C46.0091 25.6244 46.5721 25.1276 47.2344 24.5481C47.8967 23.9686 48.5093 23.4967 49.0722 23.1325C49.6849 22.7351 50.4879 22.3957 51.4813 22.1142C52.4748 21.8327 53.5345 21.692 54.6604 21.692C57.3592 21.692 59.3792 22.4619 60.7204 24.0017C62.0781 25.525 62.757 27.5533 62.757 30.0866V42.2563C62.757 42.8689 62.848 43.3574 63.0301 43.7216C63.2123 44.0859 63.5517 44.3756 64.0484 44.5909C64.3133 44.7068 64.6362 44.8227 65.017 44.9386C65.4144 45.0545 65.8615 45.1373 66.3582 45.187V47ZM77.903 47.8444C76.297 47.8444 74.724 47.6043 73.1842 47.1242C71.6609 46.6606 70.477 46.1638 69.6326 45.634L68.8875 47.3229H66.9503L66.6274 38.059H68.4405C68.6888 38.8041 69.1028 39.6485 69.6823 40.5923C70.2618 41.5195 70.9241 42.3556 71.6692 43.1007C72.4474 43.8458 73.3332 44.475 74.3266 44.9883C75.3366 45.5016 76.4129 45.7582 77.5553 45.7582C79.062 45.7582 80.1797 45.4684 80.9082 44.8889C81.6533 44.2929 82.0258 43.3822 82.0258 42.157C82.0258 41.4947 81.8602 40.9483 81.5291 40.5178C81.198 40.0873 80.7426 39.7147 80.1631 39.4001C79.5174 39.069 78.8054 38.7875 78.0272 38.5557C77.2656 38.3239 76.3218 38.0424 75.1959 37.7113C74.07 37.3801 73.1014 37.049 72.2901 36.7178C71.4953 36.3701 70.6674 35.832 69.8064 35.1035C69.0614 34.4577 68.4653 33.6796 68.0182 32.7689C67.5712 31.8582 67.3477 30.7737 67.3477 29.5154C67.3477 27.1808 68.3246 25.2932 70.2783 23.8527C72.2487 22.4122 74.8233 21.692 78.0024 21.692C79.5091 21.692 80.8916 21.8493 82.15 22.1639C83.4249 22.4619 84.4929 22.793 85.3539 23.1573L85.8754 21.692H87.763L88.1603 30.1611H86.397C85.8175 28.4391 84.824 26.9572 83.4166 25.7154C82.0093 24.4571 80.4943 23.8279 78.8716 23.8279C77.5967 23.8279 76.595 24.0928 75.8665 24.6226C75.1379 25.1525 74.7737 25.8893 74.7737 26.8331C74.7737 28.0914 75.3035 29.0021 76.3632 29.565C77.4394 30.128 78.9379 30.6578 80.8585 31.1545C83.8223 31.9162 85.9913 32.9593 87.3656 34.2839C88.7399 35.5919 89.427 37.2642 89.427 39.3008C89.427 42.0162 88.359 44.119 86.2231 45.6092C84.1038 47.0993 81.3304 47.8444 77.903 47.8444ZM104.374 47.7948C102.073 47.7948 100.036 47.4636 98.2647 46.8013C96.5096 46.1225 95.0608 45.2035 93.9184 44.0445C92.7759 42.8689 91.9232 41.4781 91.3602 39.872C90.7973 38.266 90.5158 36.5191 90.5158 34.6316C90.5158 32.9096 90.8552 31.2704 91.5341 29.714C92.2295 28.1576 93.165 26.7917 94.3406 25.6161C95.5493 24.4074 97.0477 23.4471 98.8359 22.7351C100.641 22.0066 102.628 21.6423 104.797 21.6423C107.843 21.6423 110.252 22.2218 112.024 23.3808C113.796 24.5233 114.681 26.0714 114.681 28.0252C114.681 29.2173 114.367 30.1777 113.738 30.9062C113.108 31.6347 112.024 31.999 110.484 31.999C109.242 31.999 108.199 31.7009 107.355 31.1049C106.527 30.5088 106.113 29.7306 106.113 28.7703C106.113 27.959 106.245 27.1559 106.51 26.3612C106.775 25.5664 106.932 24.9621 106.982 24.5481C106.8 24.2501 106.568 24.0266 106.287 23.8776C106.005 23.712 105.567 23.6292 104.97 23.6292C104.225 23.6292 103.547 23.803 102.934 24.1508C102.321 24.4985 101.75 25.1111 101.22 25.9886C100.707 26.8165 100.293 27.9258 99.9784 29.3167C99.6803 30.7075 99.5313 32.3798 99.5313 34.3336C99.5313 37.2808 100.218 39.6568 101.593 41.4615C102.984 43.2663 104.639 44.1687 106.56 44.1687C108.398 44.1687 109.855 43.763 110.931 42.9517C112.024 42.1238 112.993 40.9565 113.837 39.4498L115.7 40.7413C115.186 41.7513 114.574 42.6785 113.862 43.5229C113.15 44.3508 112.297 45.0876 111.304 45.7334C110.261 46.4122 109.201 46.9255 108.125 47.2732C107.048 47.6209 105.798 47.7948 104.374 47.7948ZM139.663 26.9076C139.663 28.1659 139.273 29.2753 138.495 30.2356C137.717 31.1794 136.691 31.6513 135.416 31.6513C134.207 31.6513 133.18 31.345 132.336 30.7323C131.508 30.1197 131.094 29.2173 131.094 28.0252C131.094 27.4457 131.135 26.9986 131.218 26.684C131.301 26.3529 131.376 26.0466 131.442 25.7651C130.68 25.7982 129.877 26.0631 129.033 26.5599C128.188 27.0566 127.443 27.7189 126.797 28.5467V42.1818C126.797 42.7613 126.889 43.2415 127.071 43.6223C127.253 44.0031 127.559 44.3011 127.99 44.5164C128.354 44.6985 128.942 44.8558 129.753 44.9883C130.581 45.1042 131.177 45.1704 131.541 45.187V47H114.926V45.187C115.34 45.1538 115.754 45.1125 116.168 45.0628C116.598 44.9966 116.962 44.9138 117.26 44.8144C117.79 44.6323 118.154 44.3508 118.353 43.97C118.552 43.5892 118.651 43.0924 118.651 42.4798V28.0252C118.651 27.4291 118.51 26.8993 118.229 26.4357C117.947 25.9555 117.608 25.5747 117.211 25.2932C116.913 25.0945 116.532 24.929 116.068 24.7965C115.621 24.664 115.124 24.573 114.578 24.5233V22.7103L126.425 22.0645L126.797 22.4371V26.0383H126.897C128.039 24.7137 129.248 23.6789 130.523 22.9338C131.814 22.1721 133.155 21.7913 134.546 21.7913C136.086 21.7913 137.32 22.2715 138.247 23.2318C139.191 24.1756 139.663 25.4008 139.663 26.9076ZM154.809 47H139.112V45.187C139.543 45.1538 139.965 45.1125 140.379 45.0628C140.793 45.0131 141.149 44.9303 141.447 44.8144C141.977 44.6157 142.349 44.3343 142.564 43.97C142.78 43.5892 142.887 43.0924 142.887 42.4798V28.0252C142.887 27.4457 142.755 26.9407 142.49 26.5102C142.225 26.0631 141.894 25.7071 141.496 25.4422C141.198 25.2435 140.743 25.0531 140.13 24.871C139.534 24.6889 138.988 24.573 138.491 24.5233V22.7103L150.661 22.0645L151.034 22.4371V42.157C151.034 42.7365 151.158 43.2332 151.406 43.6471C151.654 44.0445 152.01 44.3425 152.474 44.5412C152.805 44.6902 153.169 44.8227 153.567 44.9386C153.964 45.0545 154.378 45.1373 154.809 45.187V47ZM151.183 13.1235C151.183 14.3819 150.694 15.4581 149.717 16.3522C148.757 17.2297 147.614 17.6685 146.29 17.6685C144.949 17.6685 143.79 17.2297 142.813 16.3522C141.852 15.4581 141.372 14.3819 141.372 13.1235C141.372 11.8651 141.852 10.7889 142.813 9.89481C143.79 9.00071 144.949 8.55366 146.29 8.55366C147.631 8.55366 148.782 9.00071 149.742 9.89481C150.702 10.7889 151.183 11.8651 151.183 13.1235ZM185.055 34.9048C185.055 38.3984 183.888 41.3953 181.553 43.8955C179.219 46.3957 176.263 47.6457 172.687 47.6457C171.097 47.6457 169.806 47.4802 168.812 47.149C167.819 46.8344 166.999 46.4453 166.353 45.9817H166.155V52.9607C166.155 53.5402 166.279 54.0452 166.527 54.4757C166.792 54.9062 167.156 55.2208 167.62 55.4195C168.067 55.6016 168.696 55.7672 169.508 55.9162C170.336 56.0652 171.023 56.1563 171.569 56.1894V58.0272H153.637V56.1894C154.051 56.1563 154.573 56.09 155.202 55.9907C155.831 55.9079 156.303 55.8168 156.618 55.7175C157.148 55.5354 157.504 55.2208 157.686 54.7737C157.884 54.3432 157.984 53.8465 157.984 53.2835V27.8762C157.934 27.3298 157.802 26.8496 157.586 26.4357C157.388 26.0217 157.065 25.6575 156.618 25.3429C156.287 25.1276 155.848 24.9538 155.301 24.8213C154.755 24.6723 154.217 24.573 153.687 24.5233V22.7103L165.782 22.0645L166.155 22.3874V25.1442L166.353 25.1939C167.446 24.0845 168.655 23.2235 169.98 22.6109C171.321 21.9983 172.645 21.692 173.953 21.692C177.381 21.692 180.088 22.9089 182.075 25.3429C184.062 27.7603 185.055 30.9476 185.055 34.9048ZM176.139 35.0041C176.139 33.7623 176.048 32.5785 175.866 31.4526C175.684 30.3101 175.361 29.2918 174.897 28.3977C174.45 27.5036 173.854 26.7917 173.109 26.2618C172.38 25.732 171.486 25.4671 170.427 25.4671C169.35 25.4671 168.489 25.6575 167.844 26.0383C167.198 26.4026 166.635 26.8827 166.155 27.4788V41.5609C166.254 41.892 166.445 42.3225 166.726 42.8524C167.007 43.3656 167.289 43.7796 167.57 44.0942C167.984 44.5412 168.456 44.8724 168.986 45.0876C169.516 45.3029 170.095 45.4105 170.725 45.4105C172.364 45.4105 173.672 44.5329 174.649 42.7779C175.642 41.0062 176.139 38.415 176.139 35.0041ZM204.473 45.8575C203.413 46.3211 202.279 46.7351 201.07 47.0993C199.862 47.4802 198.388 47.6706 196.65 47.6706C194.067 47.6706 192.146 47.0414 190.888 45.783C189.646 44.5247 189.025 42.7282 189.025 40.3936V25.1442H184.554V22.4619H189.124V14.9365H197.196V22.4619H204.15V25.1442H197.246V38.7544C197.246 40.6916 197.511 42.0659 198.04 42.8772C198.587 43.6885 199.555 44.0942 200.946 44.0942C201.393 44.0942 202.014 44.0611 202.809 43.9948C203.604 43.9286 204.158 43.8541 204.473 43.7713V45.8575ZM230.621 41.0642C230.042 42.0079 229.338 42.902 228.51 43.7465C227.699 44.5743 226.772 45.2863 225.729 45.8824C224.619 46.5116 223.493 46.9834 222.351 47.298C221.225 47.6292 219.925 47.7948 218.452 47.7948C216.001 47.7948 213.882 47.4471 212.094 46.7516C210.322 46.0562 208.857 45.1207 207.698 43.9452C206.539 42.7696 205.669 41.387 205.09 39.7975C204.527 38.1914 204.245 36.4529 204.245 34.5819C204.245 32.8931 204.552 31.2787 205.164 29.7389C205.794 28.1825 206.679 26.7999 207.822 25.5912C208.948 24.4157 210.363 23.4636 212.069 22.7351C213.791 22.0066 215.711 21.6423 217.831 21.6423C220.149 21.6423 222.053 21.9238 223.543 22.4867C225.033 23.0497 226.267 23.8279 227.244 24.8213C228.187 25.7651 228.875 26.8827 229.305 28.1742C229.736 29.4491 229.951 30.7903 229.951 32.1977V33.812H213.162C213.162 37.2063 213.816 39.7892 215.124 41.5609C216.432 43.3325 218.51 44.2184 221.358 44.2184C222.914 44.2184 224.313 43.7961 225.555 42.9517C226.797 42.0907 227.856 41.0062 228.734 39.6982L230.621 41.0642ZM221.134 31.6264C221.134 30.633 221.084 29.6147 220.985 28.5716C220.886 27.5285 220.712 26.6758 220.463 26.0135C220.182 25.2353 219.793 24.6475 219.296 24.2501C218.816 23.8527 218.203 23.654 217.458 23.654C216.183 23.654 215.165 24.2998 214.403 25.5912C213.642 26.8827 213.228 28.9276 213.162 31.7258L221.134 31.6264ZM262.855 46.4784L250.611 47.1987L250.238 46.851V44.5661L250.064 44.5164C249.253 45.3939 248.152 46.1638 246.761 46.8261C245.387 47.4719 243.996 47.7948 242.588 47.7948C239.244 47.7948 236.487 46.5529 234.318 44.0693C232.149 41.5857 231.065 38.3736 231.065 34.4329C231.065 30.9393 232.273 27.9424 234.691 25.4422C237.125 22.9421 240.063 21.692 243.507 21.692C244.865 21.692 246.14 21.8493 247.332 22.1639C248.524 22.4619 249.476 22.8179 250.188 23.2318V15.1104C250.188 14.4978 250.064 13.9265 249.816 13.3967C249.567 12.8503 249.236 12.4281 248.822 12.1301C248.309 11.7658 247.663 11.5092 246.885 11.3601C246.123 11.1946 245.354 11.0787 244.575 11.0124V9.1994L257.987 8.55366L258.359 8.95103V41.5112C258.359 42.1404 258.459 42.6702 258.657 43.1007C258.873 43.5312 259.212 43.8706 259.676 44.119C260.023 44.3011 260.528 44.4336 261.191 44.5164C261.87 44.5992 262.424 44.6488 262.855 44.6654V46.4784ZM250.188 42.0576V28.0252C250.072 27.6444 249.907 27.2222 249.692 26.7585C249.493 26.2949 249.211 25.8562 248.847 25.4422C248.516 25.0945 248.069 24.7882 247.506 24.5233C246.96 24.2584 246.339 24.1259 245.643 24.1259C243.988 24.1259 242.63 25.0614 241.57 26.9324C240.511 28.8034 239.981 31.4443 239.981 34.8551C239.981 36.1963 240.072 37.405 240.254 38.4812C240.453 39.5409 240.792 40.5095 241.272 41.387C241.752 42.2646 242.365 42.9517 243.11 43.4484C243.872 43.9452 244.782 44.1935 245.842 44.1935C246.852 44.1935 247.688 44.0031 248.35 43.6223C249.013 43.2249 249.625 42.7033 250.188 42.0576Z" fill="#FEE000"></path><path d="M6.40741 65H5.43963V56.5044H6.48275V59.5352C6.92317 58.9828 7.4853 58.7065 8.16912 58.7065C8.54773 58.7065 8.9051 58.7838 9.24121 58.9383C9.58119 59.089 9.85936 59.3034 10.0757 59.5816C10.2959 59.8559 10.4678 60.1881 10.5915 60.5783C10.7151 60.9685 10.7769 61.3858 10.7769 61.8301C10.7769 62.8848 10.5161 63.7 9.99458 64.2756C9.47302 64.8513 8.84715 65.1391 8.11697 65.1391C7.39065 65.1391 6.82079 64.8358 6.40741 64.2293V65ZM6.39582 61.8764C6.39582 62.6144 6.49627 63.1475 6.69717 63.4759C7.02555 64.0129 7.46985 64.2814 8.03004 64.2814C8.48592 64.2814 8.87999 64.0844 9.21224 63.6903C9.54449 63.2924 9.71062 62.7013 9.71062 61.917C9.71062 61.1134 9.55029 60.5204 9.22962 60.1379C8.91283 59.7554 8.52842 59.5642 8.0764 59.5642C7.62052 59.5642 7.22645 59.7632 6.8942 60.1611C6.56195 60.5552 6.39582 61.1269 6.39582 61.8764ZM12.2428 67.3702L12.1269 66.3908C12.3549 66.4526 12.5538 66.4835 12.7238 66.4835C12.9556 66.4835 13.1411 66.4449 13.2802 66.3676C13.4192 66.2904 13.5332 66.1822 13.6221 66.0431C13.6878 65.9388 13.794 65.68 13.9408 65.2666C13.9601 65.2086 13.991 65.1236 14.0335 65.0116L11.6981 58.8456H12.8224L14.1031 62.4096C14.2692 62.8616 14.4179 63.3368 14.5493 63.8352C14.6691 63.3561 14.812 62.8887 14.9781 62.4328L16.2936 58.8456H17.3367L14.9955 65.1043C14.7444 65.7804 14.5493 66.2459 14.4102 66.5009C14.2248 66.8448 14.0123 67.0959 13.7728 67.2543C13.5332 67.4166 13.2473 67.4977 12.9151 67.4977C12.7142 67.4977 12.4901 67.4552 12.2428 67.3702ZM21.7521 62.2705L22.8126 62.1778C22.8629 62.6028 22.9788 62.9524 23.1603 63.2267C23.3458 63.4971 23.6317 63.7174 24.018 63.8873C24.4044 64.0535 24.839 64.1365 25.3219 64.1365C25.7508 64.1365 26.1294 64.0728 26.4578 63.9453C26.7861 63.8178 27.0295 63.6439 27.1879 63.4237C27.3502 63.1997 27.4313 62.9563 27.4313 62.6936C27.4313 62.427 27.3541 62.1952 27.1995 61.9981C27.045 61.7972 26.79 61.6292 26.4346 61.494C26.2066 61.4051 25.7025 61.268 24.9221 61.0825C24.1417 60.8932 23.595 60.7155 23.282 60.5494C22.8764 60.3369 22.5731 60.0742 22.3722 59.7612C22.1752 59.4444 22.0767 59.0909 22.0767 58.7007C22.0767 58.2719 22.1984 57.872 22.4418 57.5011C22.6852 57.1264 23.0406 56.8424 23.5081 56.6493C23.9755 56.4561 24.4952 56.3595 25.0669 56.3595C25.6967 56.3595 26.2511 56.4619 26.7301 56.6666C27.2131 56.8675 27.5839 57.165 27.8428 57.5591C28.1016 57.9532 28.2407 58.3994 28.26 58.8978L27.1821 58.9789C27.1242 58.4419 26.9272 58.0362 26.591 57.7619C26.2588 57.4876 25.7662 57.3505 25.1133 57.3505C24.4333 57.3505 23.9369 57.476 23.624 57.7272C23.3149 57.9744 23.1603 58.2738 23.1603 58.6254C23.1603 58.9306 23.2705 59.1817 23.4907 59.3788C23.707 59.5758 24.2711 59.7786 25.1828 59.9872C26.0985 60.192 26.7263 60.3716 27.0662 60.5262C27.5608 60.7541 27.9259 61.0439 28.1615 61.3954C28.3972 61.7432 28.515 62.1449 28.515 62.6008C28.515 63.0528 28.3856 63.4798 28.1267 63.8815C27.8679 64.2795 27.4951 64.5905 27.0083 64.8146C26.5254 65.0348 25.9806 65.1449 25.3741 65.1449C24.6053 65.1449 23.9601 65.0328 23.4385 64.8088C22.9208 64.5847 22.5132 64.2486 22.2157 63.8004C21.9221 63.3484 21.7676 62.8384 21.7521 62.2705ZM34.1708 62.7457L35.1965 62.879C35.0845 63.586 34.7967 64.1404 34.3331 64.5422C33.8733 64.9401 33.3073 65.1391 32.6351 65.1391C31.7929 65.1391 31.1149 64.8648 30.601 64.3162C30.0911 63.7637 29.8361 62.9736 29.8361 61.946C29.8361 61.2815 29.9462 60.7 30.1664 60.2017C30.3866 59.7033 30.7208 59.3305 31.1689 59.0832C31.621 58.8321 32.1116 58.7065 32.6409 58.7065C33.3093 58.7065 33.8559 58.8765 34.2809 59.2165C34.7059 59.5526 34.9783 60.0317 35.098 60.6537L34.0839 60.8101C33.9873 60.3968 33.8154 60.0858 33.5681 59.8771C33.3247 59.6685 33.0292 59.5642 32.6815 59.5642C32.156 59.5642 31.7291 59.7535 31.4007 60.1321C31.0724 60.5069 30.9082 61.1018 30.9082 61.917C30.9082 62.7438 31.0666 63.3445 31.3834 63.7193C31.7002 64.094 32.1135 64.2814 32.6235 64.2814C33.033 64.2814 33.3749 64.1558 33.6492 63.9047C33.9235 63.6536 34.0974 63.2673 34.1708 62.7457ZM35.9381 61.9228C35.9381 60.7831 36.2549 59.9389 36.8885 59.3903C37.4178 58.9345 38.0629 58.7065 38.824 58.7065C39.6701 58.7065 40.3617 58.9847 40.8987 59.541C41.4357 60.0935 41.7042 60.8584 41.7042 61.8359C41.7042 62.6279 41.5844 63.2518 41.3449 63.7077C41.1092 64.1597 40.7635 64.5113 40.3076 64.7624C39.8556 65.0135 39.3611 65.1391 38.824 65.1391C37.9625 65.1391 37.2652 64.8628 36.732 64.3104C36.2027 63.7579 35.9381 62.9621 35.9381 61.9228ZM37.0102 61.9228C37.0102 62.7109 37.1821 63.302 37.5259 63.6961C37.8698 64.0863 38.3025 64.2814 38.824 64.2814C39.3417 64.2814 39.7725 64.0844 40.1163 63.6903C40.4602 63.2962 40.6321 62.6955 40.6321 61.888C40.6321 61.1269 40.4583 60.5513 40.1106 60.1611C39.7667 59.767 39.3379 59.57 38.824 59.57C38.3025 59.57 37.8698 59.7651 37.5259 60.1553C37.1821 60.5455 37.0102 61.1347 37.0102 61.9228ZM42.7819 61.9228C42.7819 60.7831 43.0987 59.9389 43.7323 59.3903C44.2615 58.9345 44.9067 58.7065 45.6678 58.7065C46.5139 58.7065 47.2054 58.9847 47.7425 59.541C48.2795 60.0935 48.548 60.8584 48.548 61.8359C48.548 62.6279 48.4282 63.2518 48.1887 63.7077C47.953 64.1597 47.6072 64.5113 47.1514 64.7624C46.6993 65.0135 46.2048 65.1391 45.6678 65.1391C44.8063 65.1391 44.1089 64.8628 43.5758 64.3104C43.0465 63.7579 42.7819 62.9621 42.7819 61.9228ZM43.854 61.9228C43.854 62.7109 44.0259 63.302 44.3697 63.6961C44.7136 64.0863 45.1463 64.2814 45.6678 64.2814C46.1855 64.2814 46.6163 64.0844 46.9601 63.6903C47.304 63.2962 47.4759 62.6955 47.4759 61.888C47.4759 61.1269 47.302 60.5513 46.9543 60.1611C46.6105 59.767 46.1816 59.57 45.6678 59.57C45.1463 59.57 44.7136 59.7651 44.3697 60.1553C44.0259 60.5455 43.854 61.1347 43.854 61.9228ZM50.0139 67.3586V58.8456H50.9643V59.6453C51.1884 59.3324 51.4414 59.0987 51.7235 58.9441C52.0055 58.7857 52.3474 58.7065 52.7492 58.7065C53.2746 58.7065 53.7382 58.8417 54.14 59.1122C54.5418 59.3826 54.8451 59.7651 55.0499 60.2596C55.2546 60.7503 55.357 61.2892 55.357 61.8764C55.357 62.5062 55.243 63.0741 55.0151 63.5802C54.791 64.0824 54.4626 64.4688 54.0299 64.7392C53.6011 65.0058 53.1491 65.1391 52.6739 65.1391C52.3262 65.1391 52.0132 65.0657 51.7351 64.9189C51.4608 64.7721 51.2347 64.5866 51.057 64.3625V67.3586H50.0139ZM50.9585 61.9576C50.9585 62.7496 51.1188 63.3349 51.4395 63.7135C51.7602 64.0921 52.1484 64.2814 52.6043 64.2814C53.0679 64.2814 53.4639 64.0863 53.7923 63.6961C54.1246 63.302 54.2907 62.6936 54.2907 61.8706C54.2907 61.0864 54.1284 60.4991 53.8039 60.1089C53.4832 59.7187 53.0988 59.5236 52.6507 59.5236C52.2064 59.5236 51.8123 59.7323 51.4685 60.1495C51.1285 60.5629 50.9585 61.1656 50.9585 61.9576ZM58.4745 65L56.2202 56.5044H57.3735L58.6658 62.0735C58.8048 62.6568 58.9246 63.2364 59.0251 63.812C59.2414 62.9041 59.3689 62.3806 59.4075 62.2415L61.0244 56.5044H62.3804L63.5974 60.8043C63.9026 61.8706 64.1228 62.8732 64.258 63.812C64.3662 63.275 64.5072 62.6588 64.6811 61.9634L66.0139 56.5044H67.144L64.8144 65H63.7307L61.94 58.5269C61.7893 57.986 61.7005 57.6537 61.6734 57.5301C61.5846 57.9203 61.5015 58.2526 61.4242 58.5269L59.622 65H58.4745ZM68.3028 65V56.5044H69.3459V59.5526C69.8327 58.9886 70.447 58.7065 71.1887 58.7065C71.6446 58.7065 72.0406 58.7973 72.3767 58.9789C72.7129 59.1566 72.9524 59.4039 73.0953 59.7207C73.2421 60.0375 73.3155 60.4972 73.3155 61.0999V65H72.2724V61.0999C72.2724 60.5783 72.1585 60.1997 71.9305 59.9641C71.7064 59.7245 71.3877 59.6048 70.9743 59.6048C70.6653 59.6048 70.3736 59.6859 70.0993 59.8482C69.8288 60.0066 69.6357 60.2229 69.5198 60.4972C69.4039 60.7715 69.3459 61.1501 69.3459 61.633V65H68.3028ZM74.7583 61.9228C74.7583 60.7831 75.0751 59.9389 75.7087 59.3903C76.238 58.9345 76.8832 58.7065 77.6442 58.7065C78.4903 58.7065 79.1819 58.9847 79.7189 59.541C80.2559 60.0935 80.5244 60.8584 80.5244 61.8359C80.5244 62.6279 80.4046 63.2518 80.1651 63.7077C79.9294 64.1597 79.5837 64.5113 79.1278 64.7624C78.6758 65.0135 78.1813 65.1391 77.6442 65.1391C76.7827 65.1391 76.0854 64.8628 75.5522 64.3104C75.0229 63.7579 74.7583 62.9621 74.7583 61.9228ZM75.8304 61.9228C75.8304 62.7109 76.0023 63.302 76.3461 63.6961C76.69 64.0863 77.1227 64.2814 77.6442 64.2814C78.1619 64.2814 78.5927 64.0844 78.9366 63.6903C79.2804 63.2962 79.4523 62.6955 79.4523 61.888C79.4523 61.1269 79.2785 60.5513 78.9308 60.1611C78.5869 59.767 78.1581 59.57 77.6442 59.57C77.1227 59.57 76.69 59.7651 76.3461 60.1553C76.0023 60.5455 75.8304 61.1347 75.8304 61.9228ZM81.6021 61.9228C81.6021 60.7831 81.9189 59.9389 82.5525 59.3903C83.0817 58.9345 83.7269 58.7065 84.488 58.7065C85.3341 58.7065 86.0257 58.9847 86.5627 59.541C87.0997 60.0935 87.3682 60.8584 87.3682 61.8359C87.3682 62.6279 87.2484 63.2518 87.0089 63.7077C86.7732 64.1597 86.4275 64.5113 85.9716 64.7624C85.5196 65.0135 85.025 65.1391 84.488 65.1391C83.6265 65.1391 82.9291 64.8628 82.396 64.3104C81.8667 63.7579 81.6021 62.9621 81.6021 61.9228ZM82.6742 61.9228C82.6742 62.7109 82.8461 63.302 83.1899 63.6961C83.5338 64.0863 83.9665 64.2814 84.488 64.2814C85.0057 64.2814 85.4365 64.0844 85.7803 63.6903C86.1242 63.2962 86.2961 62.6955 86.2961 61.888C86.2961 61.1269 86.1222 60.5513 85.7745 60.1611C85.4307 59.767 85.0019 59.57 84.488 59.57C83.9665 59.57 83.5338 59.7651 83.1899 60.1553C82.8461 60.5455 82.6742 61.1347 82.6742 61.9228ZM88.8341 67.3586V58.8456H89.7845V59.6453C90.0086 59.3324 90.2616 59.0987 90.5437 58.9441C90.8257 58.7857 91.1676 58.7065 91.5694 58.7065C92.0948 58.7065 92.5584 58.8417 92.9602 59.1122C93.362 59.3826 93.6653 59.7651 93.8701 60.2596C94.0748 60.7503 94.1772 61.2892 94.1772 61.8764C94.1772 62.5062 94.0632 63.0741 93.8353 63.5802C93.6112 64.0824 93.2828 64.4688 92.8501 64.7392C92.4213 65.0058 91.9693 65.1391 91.4941 65.1391C91.1464 65.1391 90.8334 65.0657 90.5553 64.9189C90.281 64.7721 90.055 64.5866 89.8772 64.3625V67.3586H88.8341ZM89.7787 61.9576C89.7787 62.7496 89.9391 63.3349 90.2597 63.7135C90.5804 64.0921 90.9686 64.2814 91.4245 64.2814C91.8881 64.2814 92.2841 64.0863 92.6125 63.6961C92.9448 63.302 93.1109 62.6936 93.1109 61.8706C93.1109 61.0864 92.9486 60.4991 92.6241 60.1089C92.3035 59.7187 91.919 59.5236 91.4709 59.5236C91.0266 59.5236 90.6325 59.7323 90.2887 60.1495C89.9487 60.5629 89.7787 61.1656 89.7787 61.9576Z" fill="white"></path><path d="M225.025 56.9785H229.031C229.824 56.9785 230.414 57.0127 230.802 57.0811C231.194 57.1449 231.542 57.2816 231.848 57.4912C232.158 57.7008 232.415 57.9811 232.62 58.332C232.825 58.6784 232.928 59.068 232.928 59.501C232.928 59.9704 232.8 60.401 232.545 60.793C232.294 61.1849 231.952 61.4788 231.52 61.6748C232.13 61.8525 232.6 62.1556 232.928 62.584C233.256 63.0124 233.42 63.516 233.42 64.0947C233.42 64.5505 233.313 64.9948 233.099 65.4277C232.889 65.8561 232.6 66.2002 232.23 66.46C231.866 66.7152 231.415 66.8724 230.877 66.9316C230.54 66.9681 229.726 66.9909 228.437 67H225.025V56.9785ZM227.049 58.6465V60.9639H228.375C229.163 60.9639 229.653 60.9525 229.845 60.9297C230.191 60.8887 230.462 60.7702 230.658 60.5742C230.859 60.3737 230.959 60.1117 230.959 59.7881C230.959 59.4782 230.872 59.2275 230.699 59.0361C230.531 58.8402 230.278 58.7217 229.94 58.6807C229.74 58.6579 229.163 58.6465 228.211 58.6465H227.049ZM227.049 62.6318V65.3115H228.922C229.651 65.3115 230.114 65.291 230.31 65.25C230.61 65.1953 230.854 65.0632 231.041 64.8535C231.232 64.6393 231.328 64.3545 231.328 63.999C231.328 63.6982 231.255 63.443 231.109 63.2334C230.964 63.0238 230.752 62.8711 230.474 62.7754C230.2 62.6797 229.603 62.6318 228.683 62.6318H227.049ZM235.416 67V56.9785H242.846V58.6738H237.439V60.8955H242.47V62.584H237.439V65.3115H243.038V67H235.416ZM247.289 67V58.6738H244.316V56.9785H252.28V58.6738H249.313V67H247.289ZM261.87 67H259.669L258.794 64.7236H254.788L253.961 67H251.815L255.718 56.9785H257.858L261.87 67ZM258.145 63.0352L256.764 59.3164L255.41 63.0352H258.145Z" fill="white"></path></svg>